<svg xmlns="http://www.w3.org/2000/svg" version="1.1" xmlns:xlink="http://www.w3.org/1999/xlink" xmlns:svgjs="http://svgjs.dev/svgjs" width="2000" height="442" viewBox="0 0 2000 442"><g transform="matrix(1,0,0,1,-2.462184873949809,-1.7953875094603688)"><svg viewBox="0 0 357 79" data-background-color="#ffffff" preserveAspectRatio="xMidYMid meet" height="442" width="2000" xmlns="http://www.w3.org/2000/svg" xmlns:xlink="http://www.w3.org/1999/xlink"><g id="tight-bounds" transform="matrix(1,0,0,1,0.43950000000003797,0.3208950525958585)"><svg viewBox="0 0 356.12052 78.35820989480828" height="78.35820989480828" width="356.12052"><g><svg viewBox="0 0 356.12052 78.35820989480828" height="78.35820989480828" width="356.12052"><g><svg viewBox="0 0 356.12052 78.35820989480828" height="78.35820989480828" width="356.12052"><g><path d="M0 78.358v-78.358h356.121v78.358z" fill="#ffffff" stroke="transparent" stroke-width="0" rx="0%" data-fill-palette-color="tertiary"></path><path d="M3.283 75.075v-71.792h349.554v71.792z" fill="#000000" stroke="transparent" stroke-width="0" rx="0%" data-fill-palette-color="quaternary"></path><path d="M9.85 68.508v-58.658h336.421v58.658z" fill="#ffffff" stroke="transparent" stroke-width="0" data-fill-palette-color="tertiary"></path></g><g transform="matrix(1,0,0,1,19.69974,19.69974)" id="textblocktransform"><svg viewBox="0 0 316.72104 38.958729894808286" height="38.958729894808286" width="316.72104" id="textblock"><g><svg viewBox="0 0 316.72104 38.958729894808286" height="38.958729894808286" width="316.72104"><g transform="matrix(1,0,0,1,0,0)"><svg width="316.72104" viewBox="0.35 -35.6 294.67999999999995 36.25" height="38.958729894808286" data-palette-color="#ffffff"><path d="M0.35-27.65L0.35-35.05 30.4-35.05 30.4-27.65 19.9-27.65 19.9 0 10.75 0 10.75-27.65 0.35-27.65ZM50.8-35.6L50.8-35.6Q54.9-35.6 58.32-34.25 61.75-32.9 64.32-30.45 66.9-28 68.32-24.73 69.75-21.45 69.75-17.6L69.75-17.6Q69.75-13.7 68.32-10.38 66.9-7.05 64.32-4.58 61.75-2.1 58.32-0.73 54.9 0.65 50.8 0.65L50.8 0.65Q46.75 0.65 43.3-0.73 39.85-2.1 37.27-4.58 34.7-7.05 33.27-10.38 31.85-13.7 31.85-17.6L31.85-17.6Q31.85-21.45 33.27-24.75 34.7-28.05 37.27-30.48 39.85-32.9 43.3-34.25 46.75-35.6 50.8-35.6ZM50.9-27.95L50.9-27.95Q48.95-27.95 47.17-27.18 45.4-26.4 44.07-24.98 42.75-23.55 42-21.68 41.25-19.8 41.25-17.55L41.25-17.55Q41.25-15.35 42-13.43 42.75-11.5 44.1-10.08 45.45-8.65 47.2-7.85 48.95-7.05 50.9-7.05L50.9-7.05Q52.85-7.05 54.57-7.85 56.3-8.65 57.6-10.08 58.9-11.5 59.62-13.43 60.35-15.35 60.35-17.55L60.35-17.55Q60.35-19.8 59.62-21.68 58.9-23.55 57.6-24.98 56.3-26.4 54.57-27.18 52.85-27.95 50.9-27.95ZM74.3 0L74.3-35.05 83.45-35.05 83.45-19.65 96.6-35.05 107.2-35.05 83.45-8.75 83.45 0 74.3 0ZM87.4-14.4L93.5-21.6 108 0 97.05 0 87.4-14.4ZM111.74 0L111.74-35.05 139.39-35.05 139.39-27.85 120.89-27.85 120.89-21.15 137.59-21.15 137.59-14 120.89-14 120.89-7.2 139.89-7.2 139.89 0 111.74 0ZM145.49 0L145.49-35.05 153.54-35.05 171.89-10.55 169.49-9.75 169.49-35.05 177.94-35.05 177.94 0 169.94 0 151.59-24.4 154.04-25.2 154.04 0 145.49 0ZM184.79 0L184.79-35.05 193.94-35.05 193.94-20.7 208.09-20.7 208.09-35.05 217.24-35.05 217.24 0 208.09 0 208.09-13.5 193.94-13.5 193.94 0 184.79 0ZM240.74-35.6L240.74-35.6Q244.84-35.6 248.26-34.25 251.69-32.9 254.26-30.45 256.84-28 258.26-24.73 259.69-21.45 259.69-17.6L259.69-17.6Q259.69-13.7 258.26-10.38 256.84-7.05 254.26-4.58 251.69-2.1 248.26-0.73 244.84 0.65 240.74 0.65L240.74 0.65Q236.69 0.65 233.24-0.73 229.79-2.1 227.21-4.58 224.64-7.05 223.21-10.38 221.79-13.7 221.79-17.6L221.79-17.6Q221.79-21.45 223.21-24.75 224.64-28.05 227.21-30.48 229.79-32.9 233.24-34.25 236.69-35.6 240.74-35.6ZM240.84-27.95L240.84-27.95Q238.89-27.95 237.11-27.18 235.34-26.4 234.01-24.98 232.69-23.55 231.94-21.68 231.19-19.8 231.19-17.55L231.19-17.55Q231.19-15.35 231.94-13.43 232.69-11.5 234.04-10.08 235.39-8.65 237.14-7.85 238.89-7.05 240.84-7.05L240.84-7.05Q242.79-7.05 244.51-7.85 246.24-8.65 247.54-10.08 248.84-11.5 249.56-13.43 250.29-15.35 250.29-17.55L250.29-17.55Q250.29-19.8 249.56-21.68 248.84-23.55 247.54-24.98 246.24-26.4 244.51-27.18 242.79-27.95 240.84-27.95ZM264.23-35.05L280.88-35.05Q284.88-35.05 287.78-33.95 290.68-32.85 292.28-30.9 293.88-28.95 293.88-26.2L293.88-26.2Q293.88-23.45 292.26-21.4 290.63-19.35 287.88-18.6L287.88-18.6Q291.18-17.95 293.11-15.55 295.03-13.15 295.03-9.75L295.03-9.75Q295.03-6.75 293.38-4.55 291.73-2.35 288.71-1.18 285.68 0 281.53 0L281.53 0 264.23 0 264.23-35.05ZM273.38-21.1L280.38-21.1Q282.28-21.1 283.38-22.03 284.48-22.95 284.48-24.6L284.48-24.6Q284.48-26.25 283.38-27.15 282.28-28.05 280.38-28L280.38-28 273.38-28 273.38-21.1ZM273.38-7L280.38-7Q282.78-7 284.18-8.03 285.58-9.05 285.58-10.85L285.58-10.85Q285.58-12.55 284.18-13.55 282.78-14.55 280.38-14.5L280.38-14.5 273.38-14.5 273.38-7Z" opacity="1" transform="matrix(1,0,0,1,0,0)" fill="#000000" class="wordmark-text-0" data-fill-palette-color="quaternary" id="text-0"></path></svg></g></svg></g></svg></g></svg></g></svg></g><defs></defs></svg><rect width="356.12052" height="78.35820989480828" fill="none" stroke="none" visibility="hidden"></rect></g></svg></g></svg>