<svg xmlns="http://www.w3.org/2000/svg" version="1.1" xmlns:xlink="http://www.w3.org/1999/xlink" xmlns:svgjs="http://svgjs.dev/svgjs" width="1500" height="1500" viewBox="0 0 1500 1500"><rect width="1500" height="1500" fill="#ffffff"></rect><g transform="matrix(0.6666666666666666,0,0,0.6666666666666666,249.39393939393938,435.99032258064517)"><svg viewBox="0 0 396 248" data-background-color="#ffffff" preserveAspectRatio="xMidYMid meet" height="939" width="1500" xmlns="http://www.w3.org/2000/svg" xmlns:xlink="http://www.w3.org/1999/xlink"><g id="tight-bounds" transform="matrix(1,0,0,1,0.2400000000000091,0.4000000000000057)"><svg viewBox="0 0 395.52 247.2" height="247.2" width="395.52"><g><svg></svg></g><g><svg viewBox="0 0 395.52 247.2" height="247.2" width="395.52"><g transform="matrix(1,0,0,1,75.54432000000001,104.52454806519013)"><svg viewBox="0 0 244.43135999999996 38.15090386961972" height="38.15090386961972" width="244.43135999999996"><g><svg viewBox="0 0 244.43135999999996 38.15090386961972" height="38.15090386961972" width="244.43135999999996"><g><svg viewBox="0 0 244.43136 38.150903869619725" height="38.15090386961972" width="244.43135999999996"><g><svg viewBox="0 0 244.43136 38.150903869619725" height="38.150903869619725" width="244.43136"><g id="textblocktransform"><svg viewBox="0 0 244.43136 38.150903869619725" height="38.150903869619725" width="244.43136" id="textblock"><g><svg viewBox="0 0 244.43136 38.150903869619725" height="38.150903869619725" width="244.43136"><g transform="matrix(1,0,0,1,0,0)"><svg width="244.43136" viewBox="1.55 -37.1 239.28 37.35" height="38.150903869619725" data-palette-color="#919591"><path d="M11-32.85L11-8.4Q11-6.25 11.75-5.48 12.5-4.7 13.85-4.7L13.85-4.7Q14.75-4.7 15.73-5 16.7-5.3 17.85-5.9L17.85-5.9 19.3-1.75Q17.75-0.8 16.1-0.28 14.45 0.25 12.75 0.25L12.75 0.25Q10.75 0.25 9.05-0.53 7.35-1.3 6.33-3 5.3-4.7 5.3-7.4L5.3-7.4 5.3-32.85 11-32.85ZM1.55-21.5L1.55-25.6 18.85-25.6 18.85-21.5 1.55-21.5ZM36-26.75L36-26.75Q40.1-26.75 43.22-25.05 46.35-23.35 48.1-20.33 49.85-17.3 49.85-13.3L49.85-13.3Q49.85-9.3 48.1-6.25 46.35-3.2 43.22-1.5 40.1 0.2 36 0.2L36 0.2Q31.9 0.2 28.75-1.5 25.6-3.2 23.85-6.25 22.1-9.3 22.1-13.3L22.1-13.3Q22.1-17.3 23.85-20.33 25.6-23.35 28.75-25.05 31.9-26.75 36-26.75ZM36-22.1L36-22.1Q33.6-22.1 31.75-20.98 29.9-19.85 28.87-17.85 27.85-15.85 27.85-13.25L27.85-13.25Q27.85-10.6 28.87-8.6 29.9-6.6 31.75-5.48 33.6-4.35 36-4.35L36-4.35Q38.4-4.35 40.22-5.48 42.05-6.6 43.07-8.6 44.1-10.6 44.1-13.25L44.1-13.25Q44.1-15.85 43.07-17.85 42.05-19.85 40.22-20.98 38.4-22.1 36-22.1ZM56.09 0L56.09-37.1 61.84-37.1 61.84 0 56.09 0ZM61.39-13.9L73.59-26.55 80.19-26.55 61.39-7.05 61.39-13.9ZM65.55-13.65L69.8-17.1 80.94 0 74.14 0 65.55-13.65ZM87.74-15.2L103.99-15.2Q103.89-17.45 102.97-19.03 102.04-20.6 100.39-21.48 98.74-22.35 96.59-22.35L96.59-22.35Q94.19-22.35 92.42-21.25 90.64-20.15 89.64-18.18 88.64-16.2 88.64-13.55L88.64-13.55Q88.64-10.7 89.72-8.6 90.79-6.5 92.72-5.35 94.64-4.2 97.14-4.2L97.14-4.2Q101.59-4.2 104.64-7.35L104.64-7.35 107.69-4.3Q105.74-2.15 102.94-0.98 100.14 0.2 96.69 0.2L96.69 0.2Q92.59 0.2 89.54-1.5 86.49-3.2 84.79-6.23 83.09-9.25 83.09-13.25L83.09-13.25Q83.09-17.25 84.79-20.28 86.49-23.3 89.54-25 92.59-26.7 96.54-26.75L96.54-26.75Q101.24-26.75 104.09-24.83 106.94-22.9 108.14-19.4 109.34-15.9 108.99-11.1L108.99-11.1 87.74-11.1 87.74-15.2ZM134.69 0L134.69-15Q134.69-18.1 132.99-19.88 131.29-21.65 128.29-21.65L128.29-21.65Q124.74-21.6 122.72-19.15 120.69-16.7 120.69-13.05L120.69-13.05 119.09-13.05Q119.09-18 120.49-21 121.89-24 124.47-25.38 127.04-26.75 130.54-26.75L130.54-26.75Q133.64-26.75 135.87-25.5 138.09-24.25 139.27-21.98 140.44-19.7 140.44-16.5L140.44-16.5 140.44 0 134.69 0ZM114.99 0L114.99-26.55 120.74-26.55 120.74 0 114.99 0ZM168.14 0L168.14-15Q168.14-18.1 166.44-19.88 164.74-21.65 161.74-21.65L161.74-21.65Q158.19-21.6 156.16-19.15 154.14-16.7 154.14-13.05L154.14-13.05 152.54-13.05Q152.54-18 153.94-21 155.34-24 157.91-25.38 160.49-26.75 163.99-26.75L163.99-26.75Q167.09-26.75 169.31-25.5 171.54-24.25 172.71-21.98 173.89-19.7 173.89-16.5L173.89-16.5 173.89 0 168.14 0ZM148.39 0L148.39-37.1 154.14-37.1 154.14 0 148.39 0ZM192.99-26.75L192.99-26.75Q197.09-26.75 200.21-25.05 203.34-23.35 205.09-20.33 206.84-17.3 206.84-13.3L206.84-13.3Q206.84-9.3 205.09-6.25 203.34-3.2 200.21-1.5 197.09 0.2 192.99 0.2L192.99 0.2Q188.89 0.2 185.74-1.5 182.59-3.2 180.84-6.25 179.09-9.3 179.09-13.3L179.09-13.3Q179.09-17.3 180.84-20.33 182.59-23.35 185.74-25.05 188.89-26.75 192.99-26.75ZM192.99-22.1L192.99-22.1Q190.59-22.1 188.74-20.98 186.89-19.85 185.86-17.85 184.84-15.85 184.84-13.25L184.84-13.25Q184.84-10.6 185.86-8.6 186.89-6.6 188.74-5.48 190.59-4.35 192.99-4.35L192.99-4.35Q195.39-4.35 197.21-5.48 199.04-6.6 200.06-8.6 201.09-10.6 201.09-13.25L201.09-13.25Q201.09-15.85 200.06-17.85 199.04-19.85 197.21-20.98 195.39-22.1 192.99-22.1ZM228.13-26.75L228.13-26.75Q231.93-26.75 234.78-25.05 237.63-23.35 239.23-20.3 240.83-17.25 240.83-13.2L240.83-13.2Q240.83-9.25 239.26-6.23 237.68-3.2 234.86-1.5 232.03 0.2 228.23 0.2L228.23 0.2Q224.58 0.2 222.01-1.4 219.43-3 218.08-6.03 216.73-9.05 216.73-13.2L216.73-13.2Q216.73-17.5 218.08-20.53 219.43-23.55 222.01-25.15 224.58-26.75 228.13-26.75ZM226.93-22.2L226.93-22.2Q224.58-22.2 222.73-21.05 220.88-19.9 219.86-17.93 218.83-15.95 218.83-13.35L218.83-13.35Q218.83-10.75 219.86-8.72 220.88-6.7 222.73-5.58 224.58-4.45 226.93-4.45L226.93-4.45Q229.33-4.45 231.16-5.6 232.98-6.75 234.01-8.75 235.03-10.75 235.03-13.35L235.03-13.35Q235.03-15.9 234.01-17.9 232.98-19.9 231.16-21.05 229.33-22.2 226.93-22.2ZM213.08 0L213.08-37.1 218.83-37.1 218.83 0 213.08 0Z" opacity="1" transform="matrix(1,0,0,1,0,0)" fill="#919591" class="wordmark-text-0" data-fill-palette-color="primary" id="text-0"></path></svg></g></svg></g></svg></g></svg></g></svg></g></svg></g></svg></g><path d="M182.139 98.525L182.139 35.861 6.662 35.861 6.662 211.339 182.139 211.339 182.139 148.675 178.699 148.675 178.699 207.898 10.102 207.898 10.102 39.302 178.699 39.302 178.699 98.525Z" fill="#919591" stroke="transparent" data-fill-palette-color="tertiary"></path></svg></g><defs></defs></svg><rect width="395.52" height="247.2" fill="none" stroke="none" visibility="hidden"></rect></g></svg></g></svg>